<svg xmlns="http://www.w3.org/2000/svg" viewBox="0 0 1080 1080">
  <defs>
    <style>
      .cls-1 {
        fill: #1e2248;
      }

      .cls-2 {
        fill: #d43463;
      }

      .cls-3 {
        fill: #7358a1;
      }

      .cls-4 {
        fill: #fff;
      }

      .cls-5 {
        fill: #f9af1d;
      }

      .cls-6 {
        fill: #45a9df;
      }
    </style>
  </defs>
  <g id="Layer_1" data-name="Layer 1">
    <path class="cls-1" d="M1073-11.24H-15.15v1112.9h1112.9V-11.24Z"/>
  </g>
  <g id="Layer_2" data-name="Layer 2">
    <g>
      <rect class="cls-2" x="215.96" y="223.12" width="216" height="223.12"/>
      <rect class="cls-3" x="-0.04" y="223.12" width="216" height="223.12"/>
      <rect class="cls-1" x="-0.04" y="246.61" width="216.04" height="33.89"/>
      <rect class="cls-1" x="-0.04" y="317.73" width="216.04" height="33.89"/>
      <rect class="cls-1" x="-0.04" y="388.86" width="216.04" height="33.89"/>
      <path class="cls-4" d="M353.84,347.4c11.84-8.17,26.71-12.72,43.84-12.72-17.13,0-32-4.56-43.84-12.72,2.75-14.38,10.13-28.4,22.25-40.85-12.12,12.45-25.76,20-39.75,22.86C328.39,291.81,324,276.53,324,258.92c0,17.61-4.43,32.89-12.38,45.05-14-2.83-27.63-10.41-39.75-22.86,12.12,12.45,19.5,26.47,22.25,40.85-11.84,8.16-26.71,12.72-43.84,12.72,17.13,0,32,4.55,43.84,12.72-2.75,14.37-10.13,28.4-22.25,40.85,12.12-12.45,25.76-20,39.75-22.86,7.95,12.16,12.38,27.44,12.38,45.05,0-17.61,4.43-32.89,12.38-45.05,14,2.82,27.63,10.41,39.75,22.86C364,375.8,356.59,361.77,353.84,347.4Z"/>
      <rect class="cls-5" x="215.96" width="216" height="223.12"/>
      <rect class="cls-1" x="-0.04" width="216" height="223.12"/>
      <rect class="cls-3" x="215.96" y="-223.11" width="216" height="223.12"/>
      <rect class="cls-2" x="-0.04" y="-223.11" width="216" height="223.12"/>
      <path class="cls-1" d="M0-223.11V223.12H432v-2.3C432-24.36,238.55-223.11,0-223.11Z"/>
      <path class="cls-4" d="M0,.24V223.12H215.73V222C215.73,99.51,119.13.24,0,.24Z"/>
      <rect class="cls-2" x="863.96" width="216" height="223.12"/>
      <path class="cls-6" d="M972,0h0c59.65,0,108-49.69,108-111v-1.15c0-61.29-48.35-111-108-111h0c-59.65,0-108,49.69-108,111V-111C864-49.69,912.31,0,972,0Z"/>
      <rect class="cls-4" x="972.35" width="107.61" height="92.37"/>
      <path class="cls-3" d="M864,446.24h0c119.29,0,216-99.38,216-222v-1.15H864Z"/>
      <rect class="cls-4" x="647.96" y="223.12" width="216" height="223.12"/>
      <rect class="cls-3" x="574.84" y="318.11" width="223.12" height="33.15" transform="translate(351.72 1021.08) rotate(-90)"/>
      <rect class="cls-3" x="644.4" y="318.11" width="223.12" height="33.15" transform="translate(421.28 1090.64) rotate(-90)"/>
      <rect class="cls-3" x="713.96" y="318.11" width="223.12" height="33.15" transform="translate(490.84 1160.2) rotate(-90)"/>
      <path class="cls-1" d="M540,446.24h0c59.65,0,108-49.69,108-111V334.1c0-61.29-48.35-111-108-111h0c-59.65,0-108,49.69-108,111v1.15C432,396.55,480.31,446.24,540,446.24Z"/>
      <path class="cls-5" d="M648,223.12H864V0h0C744.67,0,648,99.38,648,222Z"/>
      <path class="cls-3" d="M432,223.12H648V222C648,99.38,551.25,0,432,0h0Z"/>
      <path class="cls-3" d="M864,0h0V-223.11H648V-222C648-99.37,744.67,0,864,0Z"/>
      <path class="cls-2" d="M432,0h0C551.25,0,648-99.37,648-222v-1.15H432Z"/>
      <path class="cls-6" d="M648.35,446.24h0V223.12h-216v1.15C432.35,346.86,529.06,446.24,648.35,446.24Z"/>
    </g>
  </g>
</svg>
